<svg xmlns="http://www.w3.org/2000/svg" style="display: none;">
  <symbol id="chevron_thin" viewBox="0 0 20 20">
    <path d="M13.25,10L6.109,2.58c-0.268-0.27-0.268-0.707,0-0.979c0.268-0.27,0.701-0.27,0.969,0l7.83,7.908 c0.268,0.271,0.268,0.709,0,0.979l-7.83,7.908c-0.268,0.271-0.701,0.27-0.969,0c-0.268-0.269-0.268-0.707,0-0.979L13.25,10z"/>
  </symbol>
  <symbol id="close" viewBox="0 0 24 24">
    <path d="M19,6.41L17.59,5L12,10.59L6.41,5L5,6.41L10.59,12L5,17.59L6.41,19L12,13.41L17.59,19L19,17.59L13.41,12L19,6.41Z" />
  </symbol>
  <symbol id="check" viewBox="0 0 24 24">
    <path d="M21,7L9,19L3.5,13.5L4.91,12.09L9,16.17L19.59,5.59L21,7Z" />
  </symbol>
</svg>